<svg xmlns="http://www.w3.org/2000/svg" viewBox="0 0 64 64">
  <defs>
    <linearGradient id="g" x1="0" x2="1" y1="0" y2="1">
      <stop offset="0" stop-color="#16a34a"/>
      <stop offset="1" stop-color="#22c55e"/>
    </linearGradient>
  </defs>
  <rect width="64" height="64" rx="12" fill="url(#g)"/>
  <!-- Wallet icon -->
  <g fill="#ffffff">
    <!-- Wallet body -->
    <path d="M12 22h40a6 6 0 0 1 6 6v12a6 6 0 0 1-6 6H12a6 6 0 0 1-6-6V28a6 6 0 0 1 6-6z" fill-opacity="0.95"/>
    <!-- Wallet flap/top -->
    <path d="M38 22v-4a6 6 0 0 0-6-6H18a6 6 0 0 0-6 6v4" fill-opacity="0.85"/>
    <!-- Pocket / latch area -->
    <rect x="42" y="28" width="14" height="10" rx="3" fill="#e6f7ee"/>
    <circle cx="50" cy="33" r="2" fill="#22c55e"/>
  </g>
</svg>
